<svg width="43" height="40" viewBox="0 0 43 40" fill="none" xmlns="http://www.w3.org/2000/svg">
<path d="M21.1765 40C32.8719 40 42.3529 31.0457 42.3529 20C42.3529 8.9543 32.8719 0 21.1765 0C9.48103 0 0 8.9543 0 20C0 31.0457 9.48103 40 21.1765 40Z" fill="#627EEA"/>
<path d="M21.8356 5V16.0875L31.7581 20.275L21.8356 5Z" fill="white" fill-opacity="0.602"/>
<path d="M21.8356 5L11.9118 20.275L21.8356 16.0875V5Z" fill="white"/>
<path d="M21.8356 27.46V34.9937L31.7647 22.02L21.8356 27.46Z" fill="white" fill-opacity="0.602"/>
<path d="M21.8356 34.9937V27.4587L11.9118 22.02L21.8356 34.9937Z" fill="white"/>
<path d="M21.8356 25.7162L31.7581 20.275L21.8356 16.09V25.7162Z" fill="white" fill-opacity="0.2"/>
<path d="M11.9118 20.275L21.8356 25.7162V16.09L11.9118 20.275Z" fill="white" fill-opacity="0.602"/>
</svg>
